HIERARCHY
ROOT SpineBase
{
  OFFSET 0.000000 0.000000 0.000000
  CHANNELS 6 Xposition Yposition Zposition Zrotation Xrotation Yrotation
  JOINT SpineMid
  {
    OFFSET 0.000000 14.579370 0.000000
    CHANNELS 3 Zrotation Xrotation Yrotation
    JOINT SpineShoulder
    {
      OFFSET -0.733243 11.176122 -0.108187
      CHANNELS 3 Zrotation Xrotation Yrotation
      JOINT Neck
      {
        OFFSET -0.378670 3.614361 -0.088618
        CHANNELS 3 Zrotation Xrotation Yrotation
        JOINT Head
        {
          OFFSET 2.838771 9.683724 1.906670
          CHANNELS 3 Zrotation Xrotation Yrotation
          End Site
          {
            OFFSET 0 0 0
          }
        }
      }
      JOINT ShoulderLeft
      {
        OFFSET -6.661918 2.905799 7.356737
        CHANNELS 3 Zrotation Xrotation Yrotation
        JOINT ElbowLeft
        {
          OFFSET -0.183818 -16.439371 3.127263
          CHANNELS 3 Zrotation Xrotation Yrotation
          JOINT WristLeft
          {
            OFFSET 1.168944 -13.575270 -6.316401
            CHANNELS 3 Zrotation Xrotation Yrotation
            JOINT HandLeft
            {
              OFFSET -0.108461 -2.833624 -2.444963
              CHANNELS 3 Zrotation Xrotation Yrotation
              JOINT HandTipLeft
              {
                OFFSET 0.109223 -3.460671 -2.832669
                CHANNELS 3 Zrotation Xrotation Yrotation
                End Site
                {
                  OFFSET 0 0 0
                }
              }
              JOINT ThumbLeft
              {
                OFFSET -1.308878 2.375891 -2.939483
                CHANNELS 3 Zrotation Xrotation Yrotation
                End Site
                {
                  OFFSET 0 0 0
                }
              }
            }
          }
        }
      }
      JOINT ShoulderRight
      {
        OFFSET 6.888599 -2.180953 -5.875071
        CHANNELS 3 Zrotation Xrotation Yrotation
        JOINT ElbowRight
        {
          OFFSET -3.000598 12.851543 -15.269142
          CHANNELS 3 Zrotation Xrotation Yrotation
          JOINT WristRight
          {
            OFFSET 1.354263 -2.873417 -12.606373
            CHANNELS 3 Zrotation Xrotation Yrotation
            JOINT HandRight
            {
              OFFSET -1.723775 2.107807 -4.567604
              CHANNELS 3 Zrotation Xrotation Yrotation
              JOINT HandTipRight
              {
                OFFSET -0.330497 0.480539 -2.823978
                CHANNELS 3 Zrotation Xrotation Yrotation
                End Site
                {
                  OFFSET 0 0 0
                }
              }
              JOINT ThumbRight
              {
                OFFSET 1.593029 2.132597 -1.600248
                CHANNELS 3 Zrotation Xrotation Yrotation
                End Site
                {
                  OFFSET 0 0 0
                }
              }
            }
          }
        }
      }
    }
  }
  JOINT HipLeft
  {
    OFFSET -3.910332 0.455867 2.169816
    CHANNELS 3 Zrotation Xrotation Yrotation
    JOINT KneeLeft
    {
      OFFSET 13.358702 -11.396604 -18.740933
      CHANNELS 3 Zrotation Xrotation Yrotation
      JOINT AnkleLeft
      {
        OFFSET -1.833525 -28.999009 -4.894996
        CHANNELS 3 Zrotation Xrotation Yrotation
        JOINT FootLeft
        {
          OFFSET -3.641764 -3.800459 6.344137
          CHANNELS 3 Zrotation Xrotation Yrotation
          End Site
          {
            OFFSET 0 0 0
          }
        }
      }
    }
  }
  JOINT HipRight
  {
    OFFSET 1.816755 1.585522 -5.658430
    CHANNELS 3 Zrotation Xrotation Yrotation
    JOINT KneeRight
    {
      OFFSET -1.525327 40.402287 -0.538819
      CHANNELS 3 Zrotation Xrotation Yrotation
      JOINT AnkleRight
      {
        OFFSET 1.797302 -30.109819 -4.628587
        CHANNELS 3 Zrotation Xrotation Yrotation
        JOINT FootRight
        {
          OFFSET -6.832000 -1.721010 -8.828221
          CHANNELS 3 Zrotation Xrotation Yrotation
          End Site
          {
            OFFSET 0 0 0
          }
        }
      }
    }
  }
}
MOTION
Frames: 14
Frame Time: 0.033333
172.030937 51.058974 292.866321 3.400335 9.314899 45.997643 -4.390992 2.131849 -46.026430 -1.950873 -3.451605 -0.353834 10.827697 -4.342770 -1.163007 0.000000 0.000000 0.000000 -1.027757 12.670318 -0.951805 1.317757 -18.200345 2.070086 47.610307 -2.181151 -41.124491 -21.642481 -2.500154 15.883390 0.000000 0.000000 0.000000 0.000000 0.000000 0.000000 5.343339 6.457121 5.394730 -6.430693 8.900165 12.523270 -2.205500 -25.819968 -21.626938 7.941151 -17.296496 17.150234 0.000000 0.000000 0.000000 0.000000 0.000000 0.000000 -73.651450 -8.518102 -58.125435 66.003457 54.431413 -35.794656 -55.379693 38.800194 -114.791235 0.000000 0.000000 0.000000 -164.196092 -4.720601 -104.209632 -176.801570 24.213789 -152.003829 -17.495307 11.911312 18.702200 0.000000 0.000000 0.000000
171.937527 51.491036 293.502957 2.344721 7.927184 43.578804 -5.333070 1.749299 -43.625976 -1.854342 -3.743503 -0.503110 12.107604 -0.506430 -1.730332 0.000000 0.000000 0.000000 1.275355 16.097253 -0.426830 0.049246 -18.359581 1.838002 45.228600 -14.790930 -36.919661 -14.785036 -3.701222 15.362793 0.000000 0.000000 0.000000 0.000000 0.000000 0.000000 7.392870 12.622197 7.546773 -7.001003 4.214794 9.208131 -3.074883 -31.743157 -23.683243 5.388466 -9.280783 15.980829 0.000000 0.000000 0.000000 0.000000 0.000000 0.000000 -71.443946 -10.815462 -57.990311 62.861798 56.087191 -32.784482 -38.195121 42.406302 -123.389573 0.000000 0.000000 0.000000 -162.103952 -5.472122 -104.460858 -176.546660 24.211415 -149.948864 -27.035668 20.055264 20.602193 0.000000 0.000000 0.000000
172.069912 51.916125 293.939996 1.969997 6.760642 40.874137 -5.273527 1.307955 -40.919880 -1.528239 -3.288704 -0.441873 11.126198 1.678905 -2.132270 0.000000 0.000000 0.000000 -0.906471 16.699897 -0.445803 2.819644 -17.281782 2.546583 64.337316 -9.811567 -54.490901 -22.271246 -22.793223 28.601746 0.000000 0.000000 0.000000 0.000000 0.000000 0.000000 7.083028 14.195879 7.667283 -7.249871 1.102207 9.054701 -5.444989 -37.503518 -29.048025 4.830574 -5.691136 16.118504 0.000000 0.000000 0.000000 0.000000 0.000000 0.000000 -72.368464 -13.021323 -58.600605 67.268755 60.988067 -36.114363 -33.007990 38.354639 -121.695994 0.000000 0.000000 0.000000 -161.744247 -6.075715 -104.904078 -175.452823 22.528261 -148.001108 -37.220689 29.316952 21.422553 0.000000 0.000000 0.000000
172.469010 52.355038 294.193486 2.532254 5.800941 38.877791 -4.270038 1.106349 -38.881455 -0.999969 -2.803673 -0.280692 7.128630 3.337030 -2.370497 0.000000 0.000000 0.000000 -4.028225 15.891451 -0.645413 4.055779 -17.016928 2.945539 49.943182 -17.230681 -40.619132 -26.805755 5.419931 17.132821 0.000000 0.000000 0.000000 0.000000 0.000000 0.000000 4.066581 18.275470 7.732019 -6.749948 -7.313977 7.173797 -7.664990 -42.490861 -33.222198 2.762291 1.665356 16.669485 0.000000 0.000000 0.000000 0.000000 0.000000 0.000000 -71.955697 -14.683617 -55.656387 65.719954 59.277813 -34.976733 14.848428 38.095179 -135.999633 0.000000 0.000000 0.000000 -163.594693 -7.967633 -112.291990 -173.430103 19.417164 -153.978398 -59.342575 47.188983 28.179703 0.000000 0.000000 0.000000
173.199600 52.646758 294.144183 3.559843 5.188618 38.310813 -4.206391 1.333062 -38.329342 -1.458679 -3.218097 -0.343165 6.487836 7.212271 -3.357868 0.000000 0.000000 0.000000 -5.447716 17.703765 -0.486782 5.864940 -20.132617 3.014427 26.056845 -29.157568 -19.859461 -13.020833 39.093780 0.186589 0.000000 0.000000 0.000000 0.000000 0.000000 0.000000 4.502577 15.052931 7.431946 -6.943603 -1.027870 8.294811 -10.798838 -46.203159 -37.217109 5.381284 5.129261 23.917685 0.000000 0.000000 0.000000 0.000000 0.000000 0.000000 -75.113574 -15.127383 -53.584452 74.751256 58.799032 -43.172246 18.428075 36.365513 -132.216330 0.000000 0.000000 0.000000 -165.675716 -11.742057 -126.451343 -172.422077 17.189247 -168.179085 -77.981297 46.867314 44.861919 0.000000 0.000000 0.000000
173.728391 52.934194 294.346996 3.930216 3.614765 40.428728 -3.633994 1.739021 -40.415463 -1.668891 -3.164675 -0.354137 6.378284 12.367212 -4.803213 0.000000 0.000000 0.000000 -6.626862 20.574650 -0.161576 8.194141 -26.237906 2.967937 15.720624 -29.161548 -12.000151 -7.463672 52.338620 -3.158397 0.000000 0.000000 0.000000 0.000000 0.000000 0.000000 2.936446 17.116005 6.433161 -6.345438 -2.528541 10.631534 -11.285372 -45.717360 -38.494009 5.769064 5.685417 25.224556 0.000000 0.000000 0.000000 0.000000 0.000000 0.000000 -73.953824 -12.958543 -50.613085 75.247990 57.304508 -44.205350 45.624395 32.450991 -133.169583 0.000000 0.000000 0.000000 -166.428873 -12.913607 -131.630004 -171.761105 14.420885 -175.429780 -72.099662 50.013389 37.204189 0.000000 0.000000 0.000000
173.906233 53.154763 294.753296 4.158157 2.842495 41.769548 -2.245894 2.206679 -41.706975 -1.020061 -2.985387 -0.232443 2.290904 12.621661 -4.348257 0.000000 0.000000 0.000000 -8.493610 20.529426 -0.320550 9.364005 -30.118964 2.909776 11.022951 -23.389127 -8.318187 -2.468382 51.814218 -5.304238 0.000000 0.000000 0.000000 0.000000 0.000000 0.000000 1.278261 13.392225 5.221482 -6.234745 0.298868 12.897121 -9.077416 -42.011975 -35.940067 4.258805 8.760756 26.224674 0.000000 0.000000 0.000000 0.000000 0.000000 0.000000 -71.547957 -11.568641 -47.672069 72.890498 54.024077 -42.951536 48.381062 32.689149 -131.828131 0.000000 0.000000 0.000000 -168.299610 -13.112165 -138.854604 -172.064312 10.447545 176.707657 -70.941506 47.010068 37.370632 0.000000 0.000000 0.000000
173.822603 53.272630 295.192691 3.819670 2.377913 43.056704 -1.086507 2.569838 -42.959694 -0.828102 -1.085941 0.001010 -1.594847 9.044186 -3.272989 0.000000 0.000000 0.000000 -8.501400 17.457412 -1.013240 8.195311 -31.390833 2.606079 11.797114 -20.714296 -9.349714 -15.917523 24.043893 14.199647 0.000000 0.000000 0.000000 0.000000 0.000000 0.000000 0.888123 4.933747 3.229585 -6.217937 7.521500 16.146522 -6.689280 -37.835038 -32.414617 2.638952 5.453491 20.017332 0.000000 0.000000 0.000000 0.000000 0.000000 0.000000 -68.694918 -10.164046 -46.775775 68.404784 51.051362 -39.499349 51.689640 33.222772 -133.508272 0.000000 0.000000 0.000000 -168.030782 -12.841129 -139.466613 -172.773611 9.694589 175.056259 -54.792070 43.318553 23.839325 0.000000 0.000000 0.000000
173.366754 53.192496 295.894987 2.837236 1.403430 43.553597 -0.636985 2.860386 -43.439556 -1.050073 -1.563191 -0.101361 -2.656640 10.157950 -2.571573 0.000000 0.000000 0.000000 -6.903669 18.277569 -0.702392 8.979713 -28.873852 2.503945 11.697792 -21.151020 -9.290471 -75.055484 36.503074 73.629375 0.000000 0.000000 0.000000 0.000000 0.000000 0.000000 3.075501 -0.900683 2.949863 -7.571259 19.315346 18.242901 -6.630611 -35.871665 -30.978372 -0.951925 8.378600 10.593742 0.000000 0.000000 0.000000 0.000000 0.000000 0.000000 -63.641178 -9.303461 -46.004272 62.634522 49.098729 -35.071889 37.213079 35.269585 -139.763183 0.000000 0.000000 0.000000 -163.456600 -12.256048 -125.849467 -173.011404 13.705425 -172.573300 -40.339877 34.993136 15.279708 0.000000 0.000000 0.000000
173.097549 53.246588 296.465820 2.368384 0.899796 43.708296 -0.305414 3.160050 -43.585499 -0.661627 -1.025583 -0.031241 -4.041233 9.502471 -2.217421 0.000000 0.000000 0.000000 -6.233910 18.221020 -0.763305 7.930585 -29.171239 2.327410 13.603850 -23.208316 -11.004432 -59.883046 11.730348 65.116109 0.000000 0.000000 0.000000 0.000000 0.000000 0.000000 3.763353 -8.407035 2.094372 -8.777911 28.061069 20.281796 -5.355441 -31.554884 -28.096164 -2.582198 12.041112 2.835865 0.000000 0.000000 0.000000 0.000000 0.000000 0.000000 -59.748497 -8.763767 -44.917896 57.346687 46.713412 -31.180867 12.912360 40.239076 -132.768936 0.000000 0.000000 0.000000 -160.382518 -11.656737 -116.309411 -173.980705 16.780000 -163.580101 -14.084707 11.587517 2.686546 0.000000 0.000000 0.000000
172.760713 53.301330 296.875716 1.743180 0.588342 43.249312 -0.654088 3.378706 -43.123318 -0.655771 -1.033031 -0.068324 -2.004599 11.194236 -2.722337 0.000000 0.000000 0.000000 -3.953693 18.746864 -0.574070 5.850104 -31.145713 1.673829 14.755649 -21.831447 -12.503984 -48.003858 20.457202 49.731720 0.000000 0.000000 0.000000 0.000000 0.000000 0.000000 4.167278 -15.463879 -0.047458 -10.813695 36.297924 25.598628 -5.307895 -28.826523 -28.528693 -2.091355 10.152657 -2.628052 0.000000 0.000000 0.000000 0.000000 0.000000 0.000000 -58.072917 -9.126173 -44.715947 55.361912 44.622225 -29.562568 -38.862114 41.487672 -114.444530 0.000000 0.000000 0.000000 -160.010415 -10.900077 -114.646388 -174.923299 15.321256 -161.010620 2.282956 -11.542538 3.237972 0.000000 0.000000 0.000000
172.488714 53.383956 297.055221 1.173078 0.761250 42.312072 -0.989651 3.384139 -42.176601 -0.615676 -0.941607 -0.073476 -1.276050 10.560195 -2.565558 0.000000 0.000000 0.000000 -2.239670 17.051841 -0.568503 0.990195 -30.003878 1.191429 19.167561 -21.481633 -16.662464 -36.013026 12.486786 38.179817 0.000000 0.000000 0.000000 0.000000 0.000000 0.000000 4.397201 -19.065106 -1.264801 -11.857652 39.092657 28.323452 -5.227827 -28.678913 -28.958881 -2.310965 11.359340 -2.400503 0.000000 0.000000 0.000000 0.000000 0.000000 0.000000 -56.955415 -10.076018 -44.671897 53.330385 42.810259 -27.851882 -45.305426 41.900770 -110.934486 0.000000 0.000000 0.000000 -159.768879 -9.902944 -112.087946 -175.427972 14.924578 -157.179754 7.108724 -17.741099 1.573303 0.000000 0.000000 0.000000
172.286465 53.513563 297.062155 0.470574 1.230770 40.538181 -1.578376 3.140153 -40.396887 -0.800922 -0.932425 -0.104374 1.599358 10.656533 -3.033832 0.000000 0.000000 0.000000 -2.566497 14.330874 -0.722365 1.322419 -24.065336 2.252210 26.311366 -21.354549 -22.606599 -29.597870 19.621895 24.742798 0.000000 0.000000 0.000000 0.000000 0.000000 0.000000 4.576118 -20.648104 -2.591166 -11.822643 39.120631 29.955962 -6.322130 -35.148954 -30.802392 -4.697120 13.836473 -1.810950 0.000000 0.000000 0.000000 0.000000 0.000000 0.000000 -58.188309 -12.243235 -44.622290 58.111999 43.383026 -31.612748 -36.056198 42.612789 -115.631633 0.000000 0.000000 0.000000 -160.442304 -9.281146 -113.888392 -175.443074 13.815492 -156.798515 11.228986 -22.992266 -1.317922 0.000000 0.000000 0.000000
172.259854 53.455052 297.030693 0.051480 1.471395 39.677178 -2.005274 2.843955 -39.547181 -0.947249 -1.128979 -0.159533 3.819729 11.603986 -3.555424 0.000000 0.000000 0.000000 -1.982044 13.541153 -0.678754 1.910568 -18.186648 2.777156 35.265056 -19.640335 -28.931079 -38.935501 16.698109 28.387130 0.000000 0.000000 0.000000 0.000000 0.000000 0.000000 4.472833 -20.760284 -3.552381 -10.913823 37.437190 29.987381 -5.799221 -32.779248 -30.859193 -3.834859 13.414177 1.659266 0.000000 0.000000 0.000000 0.000000 0.000000 0.000000 -57.525554 -13.151900 -44.433356 56.455478 42.646993 -30.280617 -44.577183 42.256866 -112.132280 0.000000 0.000000 0.000000 -160.263541 -8.771168 -112.875863 -175.066155 14.361484 -154.860097 13.919224 -25.377754 -3.424244 0.000000 0.000000 0.000000
